<svg width="54" height="54" viewBox="0 0 54 54" fill="none" xmlns="http://www.w3.org/2000/svg">
<g filter="url(#filter0_di_283_912)">
<ellipse cx="28.9282" cy="9.07272" rx="6.50692" ry="5.83088" transform="rotate(-11.6785 28.9282 9.07272)" fill="#080015"/>
<path d="M23.5986 12.6162L30.3016 14.8043L26.0534 15.6824L23.5986 12.6162Z" fill="#080015"/>
<path d="M35.23 10.2119L29.9438 14.8782L34.192 14.0001L35.23 10.2119Z" fill="#080015"/>
<ellipse cx="11.4514" cy="35.6897" rx="6.50692" ry="5.83088" transform="rotate(-101.679 11.4514 35.6897)" fill="#080015"/>
<path d="M14.9937 41.0195L17.1818 34.3166L18.0599 38.5647L14.9937 41.0195Z" fill="#080015"/>
<path d="M12.5894 29.3877L17.2556 34.6738L16.3775 30.4257L12.5894 29.3877Z" fill="#080015"/>
<path d="M40.852 12.6231C43.909 11.9915 46.8996 13.9573 47.5315 17.0143L51.9711 38.4928C52.603 41.5498 50.6368 44.5402 47.5799 45.1723L40.0795 46.7227C39.7677 46.7871 39.5398 46.4337 39.7248 46.1746C43.1335 41.3993 45.2535 38.0324 44.5597 34.6758C43.9299 31.6292 41.0827 29.7404 38.0843 30.3601C36.5267 30.682 35.2526 32.0849 34.4338 33.4526C34.3229 33.6379 34.0749 33.6892 33.8996 33.5631C32.6057 32.632 30.8798 31.8492 29.3222 32.1712C26.3238 32.791 24.4588 35.6539 25.0885 38.7005C25.7823 42.0571 29.0634 44.3076 34.086 47.3401C34.3585 47.5047 34.2895 47.9195 33.9777 47.9839L26.1004 49.6121C23.0434 50.2439 20.0528 48.278 19.4209 45.2209L14.9813 23.7424C14.3495 20.6854 16.3156 17.6949 19.3725 17.0629L40.852 12.6231Z" fill="#080015"/>
</g>
<defs>
<filter id="filter0_di_283_912" x="4.18023" y="1.80108" width="49.319" height="49.3392" filterUnits="userSpaceOnUse" color-interpolation-filters="sRGB">
<feFlood flood-opacity="0" result="BackgroundImageFix"/>
<feColorMatrix in="SourceAlpha" type="matrix" values="0 0 0 0 0 0 0 0 0 0 0 0 0 0 0 0 0 0 127 0" result="hardAlpha"/>
<feOffset/>
<feGaussianBlur stdDeviation="0.704929"/>
<feComposite in2="hardAlpha" operator="out"/>
<feColorMatrix type="matrix" values="0 0 0 0 0 0 0 0 0 0 0 0 0 0 0 0 0 0 0.05 0"/>
<feBlend mode="normal" in2="BackgroundImageFix" result="effect1_dropShadow_283_912"/>
<feBlend mode="normal" in="SourceGraphic" in2="effect1_dropShadow_283_912" result="shape"/>
<feColorMatrix in="SourceAlpha" type="matrix" values="0 0 0 0 0 0 0 0 0 0 0 0 0 0 0 0 0 0 127 0" result="hardAlpha"/>
<feOffset dx="0.187981" dy="0.187981"/>
<feGaussianBlur stdDeviation="0.939905"/>
<feComposite in2="hardAlpha" operator="arithmetic" k2="-1" k3="1"/>
<feColorMatrix type="matrix" values="0 0 0 0 0.778431 0 0 0 0 0.752941 0 0 0 0 0.905882 0 0 0 0.4 0"/>
<feBlend mode="normal" in2="shape" result="effect2_innerShadow_283_912"/>
</filter>
</defs>
</svg>
