<svg width="160" height="30" viewBox="0 0 160 30" fill="none" xmlns="http://www.w3.org/2000/svg">
<g clip-path="url(#clip0_283_1236)">
<g clip-path="url(#clip1_283_1236)">
<g clip-path="url(#clip2_283_1236)">
<path d="M3.26733 1.85033H8.6875V6.68595H12.5932V10.5386H8.6875V18.4828C8.6875 20.1567 9.21892 20.4755 11.0256 20.4755H12.5932V24.4078H9.13917C4.75523 24.4078 3.26733 23.5576 3.26733 19.4393V10.5386H0.477539V6.68595H3.26733V1.85033ZM30.9793 18.8814C29.3851 23.0793 25.6654 24.8861 22.1316 24.8861C16.3661 24.8861 12.4073 21.4055 12.4073 15.4805C12.4073 9.79458 16.7115 6.20772 21.9191 6.20772C27.8175 6.20772 31.431 10.6714 31.059 16.9684H17.9071C18.0666 19.4924 20.0327 20.6349 21.9988 20.6349C24.0713 20.6349 25.3731 19.891 25.9843 18.8548L30.9793 18.8814ZM17.9868 13.6737H25.6654C25.5591 11.4419 24.0181 10.326 21.9457 10.326C19.9795 10.326 18.2791 11.3356 17.9868 13.6737ZM49.7108 13.1955H44.6626C44.1843 11.1231 42.8824 10.4057 41.2883 10.4057C39.3487 10.4057 37.4357 11.7342 37.4357 15.5336C37.4357 19.3862 39.3487 20.6615 41.2883 20.6615C43.281 20.6615 44.5298 19.6253 44.9283 17.9249H49.9765C48.7543 23.1856 44.5032 24.8595 40.9429 24.8595C35.0976 24.8595 31.8827 21.1132 31.8827 15.4539C31.8827 9.79458 35.5759 6.18115 40.9429 6.18115C44.6095 6.18115 48.648 7.85503 49.7108 13.1955ZM56.0078 9.05064C56.7783 7.72216 58.7179 6.314 61.5079 6.314C66.0511 6.314 67.4857 8.99753 67.4857 13.8066V24.461H62.0655V15.1882C62.0655 12.6641 61.9861 10.5917 59.3555 10.5917C57.0174 10.5917 56.0343 12.1062 56.0343 15.4274V24.5141H50.6142V0.601562H56.0343L56.0078 9.05064ZM79.9735 11.9202C79.6018 10.5917 78.2201 10.2197 76.5197 10.2197C74.6328 10.2197 73.7028 10.6714 73.7028 11.5482C73.7028 12.3718 74.3404 12.8501 75.8815 13.1424L79.203 13.7269C83.4538 14.4974 85.5001 15.7727 85.5001 18.8814C85.5001 22.8668 81.8334 24.8861 76.9179 24.8861C72.1888 24.8861 68.8409 22.8933 68.2298 18.6954H73.2782C73.7564 20.3958 75.138 20.9272 76.9979 20.9272C78.9371 20.9272 80.2923 20.3958 80.2923 19.333C80.2923 18.5625 79.6018 18.0312 77.5025 17.6858L74.3404 17.1543C70.9131 16.5964 68.575 14.8694 68.575 11.7342C68.575 8.20041 72.2947 6.26086 76.6791 6.26086C80.7176 6.26086 84.4108 7.88162 85.0749 11.9468L79.9735 11.9202ZM88.2899 1.85033H93.71V6.68595H97.6156V10.5386H93.71V18.4828C93.71 20.1567 94.2412 20.4755 96.0481 20.4755H97.5891V24.4078H94.1618C89.7774 24.4078 88.2899 23.5576 88.2899 19.4393V10.5386H85.5001V6.68595H88.2899V1.85033ZM109.997 12.6641C109.997 10.5386 108.987 9.84775 106.995 9.84775C105.241 9.84775 104.072 10.7511 103.833 12.4515H98.7579C99.0237 9.10381 102.185 6.15459 107.447 6.15459C112.574 6.15459 115.47 8.227 115.364 13.6206L115.284 17.4732V19.333C115.284 21.2727 115.417 23.3716 115.683 24.461H110.342L110.263 22.3088C108.934 24.1952 106.835 24.8861 104.284 24.8861C100.91 24.8861 98.1467 22.9199 98.1467 19.6784C98.1467 15.3211 103.062 13.9129 109.944 13.3815L109.997 12.6641ZM110.156 16.5699C106.357 16.9418 103.833 17.3138 103.833 19.2799C103.833 20.4224 104.922 21.1929 106.33 21.1929C108.509 21.1929 110.156 20.263 110.156 16.9949V16.5699ZM127.798 11.9202C127.32 11.8405 126.789 11.7873 126.31 11.8139C123.68 11.8139 122.325 12.7704 122.325 15.5336V24.4344H116.878V6.68595H122.112V10.0603C122.937 7.93473 124.424 6.68595 126.949 6.57972H127.347C127.506 6.57972 127.639 6.57972 127.798 6.60625V11.9202ZM139.808 11.9202C139.436 10.5917 138.054 10.2197 136.354 10.2197C134.467 10.2197 133.537 10.6714 133.537 11.5482C133.537 12.3718 134.175 12.8501 135.716 13.1424L139.011 13.7269C143.262 14.4974 145.308 15.7727 145.308 18.8814C145.308 22.8668 141.641 24.8861 136.726 24.8861C132.023 24.8861 128.649 22.8933 128.038 18.6954H133.086C133.564 20.3958 134.946 20.9272 136.805 20.9272C138.745 20.9272 140.1 20.3958 140.1 19.333C140.1 18.5625 139.409 18.0312 137.311 17.6858L134.149 17.1543C130.721 16.5964 128.41 14.8694 128.41 11.7342C128.41 8.20041 132.129 6.26086 136.513 6.26086C140.552 6.26086 144.245 7.88162 144.909 11.9468L139.808 11.9202Z" fill="black"/>
<path d="M145.201 29.0309V24.4609H159.868V29.0309H145.201Z" fill="#39C463"/>
</g>
</g>
</g>
<defs>
<clipPath id="clip0_283_1236">
<rect width="160" height="28.86" fill="white" transform="translate(0 0.359375)"/>
</clipPath>
<clipPath id="clip1_283_1236">
<rect width="160" height="28.86" fill="white" transform="translate(0 0.359375)"/>
</clipPath>
<clipPath id="clip2_283_1236">
<rect width="160" height="28.8722" fill="white" transform="translate(0 0.353516)"/>
</clipPath>
</defs>
</svg>
